<svg xmlns="http://www.w3.org/2000/svg" width="189" height="83" fill="none"><path fill="#00612E" d="M36.51.01c.237-.03.479.01.69.114s.378.268.48.467l5.437 11.042h8.44c.227.011.446.087.626.216s.312.305.38.505.067.415-.002.614c-.069.2-.203.376-.383.504L46.27 18.04l3.416 6.931h10.326c.24.017.468.106.65.252.181.146.307.341.357.558a.95.95 0 0 1-.078.644c-.1.2-.27.367-.481.473l-7.84 3.997 3.668 7.466h10.718c.243.019.473.11.654.26s.305.35.351.57a.95.95 0 0 1-.094.648c-.108.2-.285.364-.503.464l-8.343 3.7 10.242 20.804a.95.95 0 0 1 .015.772 1.07 1.07 0 0 1-.575.564 8.5 8.5 0 0 1-1.568 0L36.863 53.81a1.3 1.3 0 0 1-.415.031L6.031 66.122a1.2 1.2 0 0 1-.66.062 1.15 1.15 0 0 1-.583-.293 1 1 0 0 1-.325-.082 1.07 1.07 0 0 1-.573-.562.95.95 0 0 1 .013-.769l10.152-20.62-8.058-3.596a1.06 1.06 0 0 1-.456-.479.95.95 0 0 1-.062-.633c.053-.212.178-.403.356-.545.18-.143.402-.23.638-.25h10.298l3.713-7.552-7.666-3.951a1.05 1.05 0 0 1-.512-.609.95.95 0 0 1 .092-.763c.097-.155.236-.284.404-.374s.359-.138.553-.14h9.996l3.415-6.931-5.997-4.625a1 1 0 0 1-.35-.507.92.92 0 0 1 .028-.6c.077-.193.216-.36.398-.478s.4-.181.624-.182h8.444L35.345.6a1.07 1.07 0 0 1 .481-.467c.21-.105.452-.144.69-.114zM9.816 77.863l2.84.827c-.31 1.273-1.075 2.414-2.173 3.242a7.33 7.33 0 0 1-4.458 1.025c-1.57-.139-3.04-.772-4.16-1.79Q0 79.347 0 76.208q0-3.33 1.876-5.174a6.5 6.5 0 0 1 2.246-1.41 6.9 6.9 0 0 1 2.682-.43c1.593-.06 3.149.46 4.328 1.445a5.16 5.16 0 0 1 1.49 2.456l-2.912.637a2.73 2.73 0 0 0-1.07-1.64 3.27 3.27 0 0 0-1.988-.595 3.6 3.6 0 0 0-1.442.259 3.4 3.4 0 0 0-1.184.8c-.666.713-1.002 1.86-1.002 3.452 0 1.68.33 2.882.991 3.597.311.347.705.625 1.152.811s.934.276 1.424.262a3.1 3.1 0 0 0 2.016-.683 3.9 3.9 0 0 0 1.21-2.142zm11.015 4.896V69.431h10.774v2.256h-7.84v2.954h7.28v2.245h-7.28v3.628h8.12v2.245zm19.207 0V69.431h2.856l5.935 8.9v-8.9h2.727V82.76h-2.95l-5.852-8.688v8.688zm19.526-4.331 2.855-.257a3.1 3.1 0 0 0 1.048 1.937 3.35 3.35 0 0 0 2.122.622 3.48 3.48 0 0 0 2.139-.555c.218-.15.397-.343.52-.566.125-.223.192-.468.197-.719.01-.294-.1-.582-.308-.806a2.34 2.34 0 0 0-1.047-.576c-.342-.113-1.12-.303-2.352-.585a8.2 8.2 0 0 1-3.31-1.321 3.5 3.5 0 0 1-.998-1.2 3.2 3.2 0 0 1-.346-1.477c0-.68.222-1.344.639-1.906a3.87 3.87 0 0 1 1.809-1.352 7.9 7.9 0 0 1 2.855-.462c1.831 0 3.203.37 4.127 1.1.456.366.822.818 1.072 1.325s.379 1.057.379 1.614l-2.935.118a2.22 2.22 0 0 0-.812-1.48 3.15 3.15 0 0 0-1.853-.452 3.6 3.6 0 0 0-2.005.483 1 1 0 0 0-.348.359.9.9 0 0 0-.117.468c0 .157.039.311.114.452.074.14.183.264.318.36q.56.426 2.699.889c1.094.203 2.158.526 3.17.96.659.311 1.214.78 1.606 1.357.397.646.59 1.38.56 2.122a3.65 3.65 0 0 1-.694 2.143 4.05 4.05 0 0 1-1.966 1.485 8.7 8.7 0 0 1-3.158.488q-2.755 0-4.233-1.161c-1.043-.886-1.674-2.106-1.764-3.407zM44.075 13.647l1.232 2.492 3.22-2.492zm-16.413 2.492 1.232-2.492h-4.48zm4.626-4.506h8.4L36.51 3.108zM44.5 19.386l-7.218 5.585h9.967zm-8.809 5.585-7.218-5.58-2.75 5.58zm5.98-11.304H31.298l-1.887 3.844 7.1 5.451 7.083-5.477zm8.96 13.36 1.025 2.054 4.07-2.055zm-29.286 1.977.969-1.978h-4.81zm29.286 2.903-12.75 6.49h15.987zm-15.556 6.49-12.722-6.561-3.203 6.525zM48.27 26.99H24.751l-1.462 2.965 13.22 6.818 13.255-6.736zm8.96 13.385.884 1.793 4.049-1.793zM14.912 42.05l.823-1.675h-4.558zm42.126 2.826-17.605 7.81L66.25 63.579zM33.75 52.732l-17.768-7.969-9.295 18.898zm21.072-12.331H18.143l-1.26 2.569 19.51 8.735q.12-.025.246-.026h.09l19.408-8.612z"/><path fill="#6D6E71" fill-rule="evenodd" d="M111.271 39.723c0 1.973-.622 3.447-1.876 4.424-.784.616-1.915.92-3.421.92a5.16 5.16 0 0 1-2.378-.467 4.7 4.7 0 0 1-1.822-1.476 6.1 6.1 0 0 1-1.288-3.72c-.076-1.509.419-2.995 1.4-4.208a5 5 0 0 1 1.736-1.29 6.1 6.1 0 0 1 2.391-.514 7.8 7.8 0 0 1 2.531.386 4.04 4.04 0 0 1 1.753 1.027c.12.13.181.298.173.468a.54.54 0 0 1-.06.251.6.6 0 0 1-.175.201.9.9 0 0 1-.521.175 1.1 1.1 0 0 1-.599-.206 7 7 0 0 0-1.383-.812 4.6 4.6 0 0 0-1.613-.272 3.65 3.65 0 0 0-1.767.38c-.54.272-.99.674-1.301 1.162a5.2 5.2 0 0 0-.913 2.99 4.8 4.8 0 0 0 .316 2.072 5.15 5.15 0 0 0 1.179 1.792c.596.543 1.4.85 2.24.853a4.3 4.3 0 0 0 1.915-.396c1.31-.575 1.965-1.654 1.965-3.227v-.513h-2.239a.7.7 0 0 1-.513-.164.56.56 0 0 1-.199-.463c.034-.463.252-.694.644-.694h2.8q1.016.002 1.014 1.059zm5.924-2.698q0 .572-1.058.827a4 4 0 0 0-.677.2 2.34 2.34 0 0 0-.962.902c-.219.38-.315.809-.276 1.236v4.152c0 .488-.246.724-.745.724-.498 0-.778-.252-.778-.755v-7.255c0-.488.246-.73.75-.73a.8.8 0 0 1 .317.031.7.7 0 0 1 .268.157.6.6 0 0 1 .163.25.6.6 0 0 1 .025.292v.72h.034c.233-.389.538-.736.901-1.028a1.9 1.9 0 0 1 1.171-.463.88.88 0 0 1 .599.2c.085.061.153.14.2.229.046.089.07.187.068.285zm8.4 4.717a2.9 2.9 0 0 1-.37 1.638 3.2 3.2 0 0 1-1.248 1.219 4.35 4.35 0 0 1-2.134.467c-1.59 0-2.671-.55-3.242-1.665a3.6 3.6 0 0 1-.386-1.66v-4.716c0-.514.246-.724.756-.724a.75.75 0 0 1 .314.03.7.7 0 0 1 .266.156.592.592 0 0 1 .187.538v4.68c0 1.43.711 2.138 2.139 2.138s2.189-.709 2.189-2.137v-4.68c0-.515.258-.725.756-.725a.75.75 0 0 1 .316.028.7.7 0 0 1 .269.156.6.6 0 0 1 .164.25.6.6 0 0 1 .024.29zm10.079-1.115c0 1.747-.627 3.031-1.892 3.853a3.73 3.73 0 0 1-2.072.586 3.2 3.2 0 0 1-1.41-.288 2.9 2.9 0 0 1-1.093-.868h-.039v3.792q-.001.854-.751.853a.75.75 0 0 1-.313-.064.7.7 0 0 1-.247-.188.83.83 0 0 1-.201-.565V37.056c0-.514.24-.755.733-.755a.8.8 0 0 1 .319.026.7.7 0 0 1 .271.156c.076.07.133.156.167.25a.6.6 0 0 1 .027.292v.432h.039c.224-.38.563-.692.977-.898a2.6 2.6 0 0 1 1.353-.258 4.15 4.15 0 0 1 1.68.308 3.95 3.95 0 0 1 1.342.92c.371.39.646.85.808 1.346.205.565.307 1.157.302 1.752m-1.523.067a4.4 4.4 0 0 0-.252-1.542 2.7 2.7 0 0 0-.812-1.171 2.15 2.15 0 0 0-1.377-.473 2.38 2.38 0 0 0-1.551.452 2.54 2.54 0 0 0-.868 1.172 4.8 4.8 0 0 0-.275 1.51 3.57 3.57 0 0 0 .7 2.328c.204.272.477.494.795.649.317.155.671.237 1.031.24a.4.4 0 0 1 .134-.031c.497-.02.974-.182 1.364-.464s.673-.67.809-1.108c.2-.506.302-1.04.302-1.578zm10.987 0c0 1.706-.639 2.97-1.926 3.786a4.2 4.2 0 0 1-1.602.551 4.3 4.3 0 0 1-1.705-.12 4.1 4.1 0 0 1-1.491-.77 3.65 3.65 0 0 1-.998-1.274 4.9 4.9 0 0 1-.499-2.173c0-1.758.667-3.032 2-3.833a3.96 3.96 0 0 1 2.122-.56 3.964 3.964 0 0 1 3.606 2.22c.335.682.503 1.424.493 2.173m-1.534 0a4.2 4.2 0 0 0-.292-1.593 2.18 2.18 0 0 0-.843-1.135 2.5 2.5 0 0 0-1.418-.444 2.5 2.5 0 0 0-1.424.425 2.2 2.2 0 0 0-.862 1.123 4.1 4.1 0 0 0-.308 1.624 3.73 3.73 0 0 0 .56 2.122c.193.32.478.587.825.768s.742.271 1.141.26a2.43 2.43 0 0 0 1.452-.412 2.1 2.1 0 0 0 .849-1.156 4.7 4.7 0 0 0 .297-1.582zM166.982 36.193c-1.28-.001-2.511.452-3.435 1.266-.924.813-1.469 1.922-1.521 3.096v8.082c0 .255.111.5.307.681a1.1 1.1 0 0 0 .741.285q.21.002.406-.072c.129-.048.246-.12.343-.212a.9.9 0 0 0 .226-.318.9.9 0 0 0 .072-.374v-4.393a5.33 5.33 0 0 0 2.799.914 5.3 5.3 0 0 0 1.92-.29 5 5 0 0 0 1.644-.953 4.5 4.5 0 0 0 1.108-1.468 4.147 4.147 0 0 0 .015-3.499 4.5 4.5 0 0 0-1.094-1.475 5 5 0 0 0-1.636-.967 5.3 5.3 0 0 0-1.917-.303zm.028 7.393a3.4 3.4 0 0 1-1.225-.18 3.1 3.1 0 0 1-1.049-.607 2.85 2.85 0 0 1-.706-.936 2.64 2.64 0 0 1 0-2.23c.164-.353.404-.672.706-.937a3.1 3.1 0 0 1 1.049-.607 3.4 3.4 0 0 1 1.225-.18c.417-.017.834.045 1.225.18.391.136.748.342 1.049.607.302.265.542.584.706.936a2.64 2.64 0 0 1 0 2.23 2.85 2.85 0 0 1-.706.937 3.1 3.1 0 0 1-1.049.607 3.4 3.4 0 0 1-1.225.18M156.213 37.765a3.3 3.3 0 0 0-1.573.407c-.476.263-.864.639-1.126 1.088a.306.306 0 0 0-.01.365.35.35 0 0 0 .157.125.4.4 0 0 0 .206.024h4.681c.314 0 .37-.298.219-.55a2.7 2.7 0 0 0-1.054-1.052 3.05 3.05 0 0 0-1.5-.386zm-2.766 4.11c.229.493.608.914 1.092 1.213s1.052.463 1.635.473a3.84 3.84 0 0 0 2.106-.586.9.9 0 0 1 .293-.161.95.95 0 0 1 .67.03.9.9 0 0 1 .274.188q.117.119.176.269.057.15.05.31a.75.75 0 0 1-.084.304.8.8 0 0 1-.203.252 5.77 5.77 0 0 1-3.315 1.028 5.2 5.2 0 0 1-1.845-.36 4.9 4.9 0 0 1-1.551-.983 4.4 4.4 0 0 1-1.018-1.455 4.1 4.1 0 0 1-.329-1.703c.006-1.163.506-2.278 1.392-3.11.886-.83 2.089-1.313 3.356-1.345a5 5 0 0 1 2.415.559 4.5 4.5 0 0 1 1.757 1.62c.7 1.13.89 2.882-.952 2.892h-5.6c-.532 0-.425.34-.33.586zM179.912 42.436v-2.107c0-.556-.241-1.09-.669-1.483a2.4 2.4 0 0 0-1.616-.613 2.4 2.4 0 0 0-1.615.614 2 2 0 0 0-.669 1.482v2.096a.95.95 0 0 1-.317.701c-.203.186-.477.29-.764.29a1.2 1.2 0 0 1-.416-.07 1.1 1.1 0 0 1-.351-.215 1 1 0 0 1-.233-.324.9.9 0 0 1-.075-.382v-1.947c0-2.888 2.329-4.285 4.412-4.285a4.55 4.55 0 0 1 1.866.377 4.2 4.2 0 0 1 1.494 1.092c.405-.46.917-.83 1.498-1.085a4.6 4.6 0 0 1 1.862-.384c2.621 0 4.575 2.055 4.676 4.48.089 2.153-.857 5.755-5.869 7.553a1.15 1.15 0 0 1-.986-.151 1 1 0 0 1-.32-.37.9.9 0 0 1-.094-.465 1 1 0 0 1 .264-.608c.158-.17.372-.289.61-.338 1.362-.317 2.554-1.075 3.355-2.134a5.02 5.02 0 0 0 1.007-3.63c-.207-1.311-1.053-2.277-2.587-2.297a2.5 2.5 0 0 0-.899.14 2.3 2.3 0 0 0-.77.449c-.221.195-.397.429-.519.688a2 2 0 0 0-.186.819v2.106a.9.9 0 0 1-.057.391 1 1 0 0 1-.222.338 1.1 1.1 0 0 1-.351.227 1.13 1.13 0 0 1-.841 0 1.1 1.1 0 0 1-.35-.227.95.95 0 0 1-.222-.338.9.9 0 0 1-.057-.39z" clip-rule="evenodd"/><path fill="#B3B2B6" fill-rule="evenodd" d="M148.241 38.752c.36 0 .712.097 1.011.28s.532.445.67.75c.138.306.174.641.104.965a1.64 1.64 0 0 1-.498.855 1.9 1.9 0 0 1-.932.457 2 2 0 0 1-1.052-.095 1.8 1.8 0 0 1-.816-.615 1.57 1.57 0 0 1-.307-.928c.001-.442.194-.866.535-1.179s.803-.49 1.285-.49" clip-rule="evenodd"/><path fill="#6D6E71" d="M91.717 24.432h-.453v34.142h.453z"/></svg>