<svg xmlns="http://www.w3.org/2000/svg" xmlns:xlink="http://www.w3.org/1999/xlink" xml:space="preserve" viewBox="0 0 240 64"><style>.st1125{fill:none}.st1126{fill:#fff}.st1191{fill:#66843d}.st1192{fill:#195081}.st1193{fill:#757278}</style><g id="logo"><path d="M38.8 8.71H10.78c-3.05 0-5.54 2.49-5.54 5.53v28.2c0 3.03 2.49 5.52 5.54 5.52H38.8c3.03 0 5.53-2.49 5.53-5.52v-28.2c-.01-3.05-2.5-5.53-5.53-5.53m.01 34H10.75V13.95h28.06z" class="st1126"/><path d="M20.19 25.98c.01-.01.02-.01.03-.02l-.02.01z" class="st1126"/><path d="M14.11 33.49h5.83v-1.55h-4.88V18.91h10.27v6.88H27v-7.78c0-.4-.33-.74-.73-.74H14.11c-.4 0-.73.34-.73.74v14.74c0 .41.33.74.73.74" class="st1126"/><path d="M34.62 27.46v10.25H21.57v-4.23h-1.63v5.16c0 .4.33.74.73.74h14.77c.4 0 .73-.34.73-.74V26.52c0-.4-.33-.73-.73-.73H27v1.68h7.62zM20.68 25.79c-.18 0-.34.07-.46.18zM19.94 26.52l.24-.54c-.14.14-.24.32-.24.54" class="st1126"/><path d="m20.68 25.79-.46.18c-.01.01-.02.01-.03.02l-.24.54v6.97h1.63v-6.02H27V25.8h-6.32zM230.49 23.69c-.34-.66-.82-1.26-1.45-1.95-.79-.85-1.59-1.41-2.4-1.67-.82-.26-1.93-.39-3.34-.39h-22.62v21.3h5.75V23.65h6.52v17.34h5.58V23.65h4.04c.43 0 .81.08 1.14.23s.65.4.98.74.54.67.65.97.16 1.5.16 2.03V41h5.5V25.83c0-.77-.17-1.48-.51-2.14M96.11 21.8c-.7-.68-1.53-1.19-2.5-1.53s-2.43-.51-4.39-.51H78.54v4.65h10.41c.72 0 1.29.06 1.69.18q.6.18 1.17.84c.27.35.46.66.58.92s.18.56.18.92v1.14h-9.73c-1.63 0-2.99.6-4.08 1.81s-1.63 2.73-1.63 4.58c0 1.76.6 3.22 1.79 4.37 1.2 1.15 2.64 1.73 4.33 1.73h15.08V28.8c0-1.66-.15-3.01-.44-4.07-.3-1.06-.89-2.04-1.78-2.93m-3.54 14.78h-7.26c-.59 0-1.12-.19-1.57-.57q-.69-.57-.69-1.41c0-.65.24-1.17.71-1.56s1.04-.59 1.71-.59h7.1zM120.99 34.45c0-1.82-.57-3.33-1.71-4.51s-2.69-1.78-4.66-1.78h-6.25c-.62 0-1.15-.22-1.59-.67s-.66-.99-.66-1.61c0-.57.17-1.08.5-1.53.34-.45.73-.67 1.19-.67h11.85v-4h-13.3c-1.94 0-3.4.68-4.39 2.04-.86 1.2-1.29 2.78-1.29 4.73 0 1.39.57 2.68 1.73 3.88 1.15 1.2 2.34 1.8 3.58 1.8h5.79c2.36 0 3.54.88 3.54 2.65 0 .76-.28 1.35-.82 1.75s-1.23.61-2.03.61h-11.34v3.84h13.83c1.75 0 3.19-.64 4.33-1.92 1.13-1.27 1.7-2.81 1.7-4.61M123.41 19.76h5.56V40.9h-5.56zM145.34 28.17h-6.25c-.62 0-1.15-.22-1.59-.67s-.66-.99-.66-1.61c0-.57.17-1.08.5-1.53.34-.45.73-.67 1.19-.67h11.85v-4h-13.3c-1.94 0-3.4.68-4.39 2.04-.86 1.2-1.29 2.78-1.29 4.73 0 1.39.57 2.68 1.73 3.88 1.15 1.2 2.34 1.8 3.58 1.8h5.79c2.36 0 3.54.88 3.54 2.65 0 .76-.28 1.35-.82 1.75-.55.41-1.23.61-2.03.61h-11.34v3.84h13.83c1.75 0 3.19-.64 4.33-1.92s1.71-2.82 1.71-4.61c0-1.82-.57-3.33-1.71-4.51-1.16-1.19-2.71-1.78-4.67-1.78M69.86 15.57H54.09c-2.66 0-4.82 2.16-4.82 4.82v15.9c0 2.64 2.17 4.8 4.82 4.8h15.77c2.66 0 4.82-2.16 4.82-4.8v-15.9c.01-2.65-2.16-4.82-4.82-4.82m-.74 19.95H54.83V21.14h14.29zM154.05 20.36v15.79c0 2.62 2.15 4.77 4.79 4.77h15.72v-5.56h-14.95V21.14h14.95v-5.55h-15.72a4.78 4.78 0 0 0-4.79 4.77M198.26 23.66a4.04 4.04 0 0 0-4.04-4.03h-13.2c-2.22 0-4.04 1.81-4.04 4.03v13.31c0 2.21 1.81 4.02 4.04 4.02h13.2c2.22 0 4.04-1.81 4.04-4.02zm-5.63 13.29h-10.02V23.71h10.02zM123.89 48.21c.87 0 1.6.22 2.17.65s.89 1.02.96 1.75h1.59c-.11-1.12-.61-2.01-1.5-2.7-.89-.68-1.96-1.02-3.23-1.02-1.64 0-2.96.54-3.94 1.62s-1.47 2.55-1.47 4.39c0 1.85.49 3.31 1.47 4.39s2.29 1.62 3.94 1.62q1.98 0 3.27-1.02c.86-.68 1.35-1.63 1.46-2.87h-1.59c-.07.83-.39 1.46-.95 1.9s-1.3.67-2.21.67c-1.17 0-2.09-.41-2.78-1.22-.68-.81-1.02-1.97-1.02-3.47 0-1.51.34-2.67 1.03-3.48.68-.8 1.62-1.21 2.8-1.21M130.53 47.1h1.5v11.63h-1.5zM137.65 50.12c-1.2 0-2.15.38-2.87 1.15s-1.07 1.85-1.07 3.25.36 2.48 1.07 3.25c.72.77 1.67 1.15 2.87 1.15s2.16-.38 2.88-1.15 1.07-1.85 1.07-3.25-.36-2.49-1.07-3.25c-.72-.77-1.68-1.15-2.88-1.15m1.74 6.82q-.66.81-1.74.81-1.065 0-1.74-.81c-.44-.54-.67-1.35-.67-2.42s.22-1.88.67-2.42q.66-.81 1.74-.81 1.065 0 1.74.81c.44.54.67 1.35.67 2.42-.01 1.07-.23 1.87-.67 2.42M148.6 56.34c-.69.9-1.46 1.35-2.29 1.35-.56 0-.96-.15-1.21-.45-.24-.3-.36-.8-.36-1.48v-5.44h-1.5v5.5c0 2.07.95 3.11 2.85 3.11.93 0 1.77-.42 2.51-1.27v1.07h1.49v-8.42h-1.49zM157.64 50.96q-.945-.84-2.31-.84c-1.02 0-1.87.4-2.54 1.2s-1.01 1.89-1.01 3.26c0 1.33.3 2.38.9 3.17q.9 1.17 2.55 1.17c.94 0 1.74-.4 2.4-1.21v1.01h1.49V47.1h-1.49v3.86zm0 5.35q-1.02 1.44-2.28 1.44-.96 0-1.5-.81c-.36-.54-.54-1.32-.54-2.36 0-1.09.19-1.92.58-2.47.38-.55.89-.83 1.53-.83.83 0 1.57.34 2.21 1.02zM172.34 52.52c-.61-.22-1.43-.45-2.46-.67-1.03-.23-1.74-.46-2.12-.71-.38-.24-.57-.61-.57-1.09 0-.53.24-.96.71-1.29.47-.32 1.13-.48 1.99-.48 1.77 0 2.73.7 2.89 2.11h1.5c-.05-1.11-.47-1.97-1.28-2.58-.8-.61-1.86-.91-3.17-.91q-1.875 0-3 .9c-.75.6-1.13 1.37-1.13 2.32 0 .84.29 1.5.87 2.01.58.5 1.53.89 2.86 1.18 1.33.28 2.27.57 2.81.86s.82.76.82 1.4c0 .61-.26 1.09-.79 1.44s-1.22.53-2.08.53c-.91 0-1.69-.21-2.33-.62s-1-1.06-1.08-1.92h-1.48c.04 1.15.47 2.1 1.28 2.83.81.74 2.04 1.1 3.68 1.1 1.28 0 2.32-.33 3.11-.99.8-.66 1.19-1.49 1.19-2.49 0-.79-.22-1.42-.65-1.88-.44-.48-.97-.83-1.57-1.05M179.9 50.12c-1.2 0-2.15.38-2.87 1.15s-1.07 1.85-1.07 3.25.36 2.48 1.07 3.25c.72.77 1.67 1.15 2.87 1.15s2.16-.38 2.88-1.15 1.07-1.85 1.07-3.25-.36-2.49-1.07-3.25c-.72-.77-1.68-1.15-2.88-1.15m1.74 6.82q-.66.81-1.74.81-1.065 0-1.74-.81c-.44-.54-.67-1.35-.67-2.42s.22-1.88.67-2.42q.66-.81 1.74-.81 1.065 0 1.74.81c.44.54.67 1.35.67 2.42s-.22 1.87-.67 2.42M185.53 47.1h1.5v11.63h-1.5zM194.56 56.34c-.69.9-1.46 1.35-2.29 1.35-.56 0-.96-.15-1.21-.45-.24-.3-.36-.8-.36-1.48v-5.44h-1.5v5.5c0 2.07.95 3.11 2.85 3.11.93 0 1.77-.42 2.51-1.27v1.07h1.49v-8.42h-1.49zM200.19 57.44c-.15-.16-.22-.52-.22-1.1v-4.85h1.36v-1.17h-1.36v-2.09h-1.49v2.09h-1.04v1.17h1.04v4.78c0 .59.03 1.06.1 1.4s.25.63.53.85q.435.33 1.35.33c.39 0 .74-.03 1.07-.1v-1.13q-.36.06-.75.06a.86.86 0 0 1-.59-.24M202.78 50.31h1.5v8.42h-1.5zM202.78 47.1h1.5v1.62h-1.5zM209.9 50.12c-1.2 0-2.15.38-2.87 1.15s-1.07 1.85-1.07 3.25.36 2.48 1.07 3.25c.72.77 1.67 1.15 2.87 1.15s2.16-.38 2.88-1.15 1.07-1.85 1.07-3.25-.36-2.49-1.07-3.25c-.73-.77-1.68-1.15-2.88-1.15m1.73 6.82q-.66.81-1.74.81-1.065 0-1.74-.81c-.44-.54-.67-1.35-.67-2.42s.22-1.88.67-2.42q.66-.81 1.74-.81 1.065 0 1.74.81c.44.54.67 1.35.67 2.42s-.22 1.87-.67 2.42M219.53 50.12c-.93 0-1.77.42-2.51 1.26v-1.07h-1.5v8.42h1.5V52.7q1.14-1.35 2.28-1.35c.56 0 .96.15 1.21.45s.37.8.37 1.48v5.44h1.5v-5.5c0-2.07-.95-3.1-2.85-3.1M230.2 54.56c-.49-.33-1.25-.62-2.27-.86-1.02-.25-1.65-.44-1.91-.59-.25-.15-.38-.38-.38-.71 0-.36.16-.64.5-.83.33-.19.75-.29 1.25-.29 1.14 0 1.73.4 1.78 1.19h1.49c-.05-1.57-1.17-2.36-3.38-2.36q-1.425 0-2.28.69c-.57.46-.85 1.04-.85 1.73q0 1.155.69 1.62c.46.31 1.18.58 2.17.83s1.65.45 1.96.61c.32.16.48.42.48.81s-.16.71-.49.96c-.33.26-.8.38-1.42.38-1.39 0-2.08-.51-2.09-1.54h-1.5c.11 1.81 1.31 2.71 3.61 2.71 1.03 0 1.85-.25 2.46-.76.61-.5.92-1.14.92-1.91 0-.79-.25-1.35-.74-1.68" class="st1126"/><defs><path id="SVGID_1855_" d="M-177.07 584.11h1087v1085h-1087z"/></defs><clipPath id="SVGID_2_"><use xlink:href="#SVGID_1855_" style="overflow:visible"/></clipPath><g style="clip-path:url(#SVGID_2_)"><defs><path id="SVGID_1858_" d="M-467.79 577.18h1781.05v1085.93H-467.79z"/></defs><clipPath id="SVGID_4_"><use xlink:href="#SVGID_1858_" style="overflow:visible"/></clipPath><g style="clip-path:url(#SVGID_4_)"><radialGradient id="SVGID_5_" cx="734.538" cy="416.676" r="300.451" gradientTransform="matrix(2.3747 0 0 2.1719 -1267.098 -676.245)" gradientUnits="userSpaceOnUse"><stop offset="0" style="stop-color:#04ad8c"/><stop offset=".018" style="stop-color:#0aa787"/><stop offset=".177" style="stop-color:#1d7565"/><stop offset=".333" style="stop-color:#1c4f49"/><stop offset=".484" style="stop-color:#163332"/><stop offset=".629" style="stop-color:#0f1e1f"/><stop offset=".766" style="stop-color:#070e10"/><stop offset=".891" style="stop-color:#030405"/><stop offset=".995" style="stop-color:#020203"/></radialGradient><ellipse cx="439.36" cy="465.95" rx="713.49" ry="652.54" style="fill:url(#SVGID_5_)"/></g><defs><path id="SVGID_1862_" d="M-467.79 577.18h1781.05v1085.93H-467.79z"/></defs><clipPath id="SVGID_7_"><use xlink:href="#SVGID_1862_" style="overflow:visible"/></clipPath><g style="clip-path:url(#SVGID_7_)"><linearGradient id="SVGID_8_" x1="2010.664" x2="1961.295" y1="14989.225" y2="16233.35" gradientTransform="matrix(1 0 0 -1 -2342.083 15950.749)" gradientUnits="userSpaceOnUse"><stop offset="0" style="stop-color:#5dc5f0"/><stop offset="1" style="stop-color:#5dc5f0;stop-opacity:0"/></linearGradient><path d="M-585.07-207.61h-152.5l692.48 832.09h60.06z" style="opacity:.23;fill:url(#SVGID_8_);stroke:#97d4e2;stroke-width:.75;stroke-miterlimit:10"/><linearGradient id="SVGID_9_" x1="2631.801" x2="2568.602" y1="14950.526" y2="16543.176" gradientTransform="matrix(1 0 0 -1 -2342.083 15950.749)" gradientUnits="userSpaceOnUse"><stop offset="0" style="stop-color:#5dc5f0"/><stop offset="1" style="stop-color:#5dc5f0;stop-opacity:0"/></linearGradient><path d="M315.37-510.7H129.19L309.07 583.03h64.66z" style="opacity:.23;fill:url(#SVGID_9_);stroke:#97d4e2;stroke-width:.75;stroke-miterlimit:10"/><linearGradient id="SVGID_10_" x1="2549.395" x2="2481.91" y1="14764.587" y2="16465.234" gradientTransform="matrix(1 0 0 -1 -2342.083 15950.749)" gradientUnits="userSpaceOnUse"><stop offset="0" style="stop-color:#5dc5f0"/><stop offset="1" style="stop-color:#5dc5f0;stop-opacity:0"/></linearGradient><path d="M241.83-424.67H-28.1L288.53 738.14h72.5z" style="opacity:.23;fill:url(#SVGID_10_);stroke:#97d4e2;stroke-width:.75;stroke-miterlimit:10"/><linearGradient id="SVGID_11_" x1="2549.395" x2="2481.91" y1="14764.587" y2="16465.234" gradientTransform="matrix(1 0 0 -1 -2342.083 15950.749)" gradientUnits="userSpaceOnUse"><stop offset="0" style="stop-color:#5dc5f0"/><stop offset="1" style="stop-color:#5dc5f0;stop-opacity:0"/></linearGradient><path d="M241.83-424.67H-28.1L288.53 738.14h72.5z" style="opacity:.23;fill:url(#SVGID_11_);stroke:#97d4e2;stroke-width:.75;stroke-miterlimit:10"/><linearGradient id="SVGID_12_" x1="2329.04" x2="2290.327" y1="15002.017" y2="15977.607" gradientTransform="matrix(1 0 0 -1 -2342.083 15950.749)" gradientUnits="userSpaceOnUse"><stop offset="0" style="stop-color:#5dc5f0"/><stop offset="1" style="stop-color:#5dc5f0;stop-opacity:0"/></linearGradient><path d="M-79.54 29.65H-273.7l392.65 657.08h81.8z" style="opacity:.23;fill:url(#SVGID_12_);stroke:#97d4e2;stroke-width:.75;stroke-miterlimit:10"/></g></g><defs><path id="SVGID_6085_" d="M921 584h1087v1085H921z"/></defs><clipPath id="SVGID_13_"><use xlink:href="#SVGID_6085_" style="overflow:visible"/></clipPath><g style="clip-path:url(#SVGID_13_)"><defs><path id="SVGID_6092_" d="M630.29 577.07h1781.05V1663H630.29z"/></defs><clipPath id="SVGID_14_"><use xlink:href="#SVGID_6092_" style="overflow:visible"/></clipPath></g><path d="M36.59 36.07V25.83H23.55v10.24z" class="st1125"/><path d="M22.16 24.35v-.01l.02-.01c.13-.11.28-.18.46-.18h4.65v-6.87H17.04V30.3h4.88v-5.41c0-.21.1-.4.24-.54" class="st1125"/><path d="M12.74 41.07h28.03V12.33H12.74zm2.62-24.68c0-.4.33-.74.73-.74h12.14c.4 0 .73.34.73.74v7.77h8.44c.4 0 .73.33.73.73v12.12c0 .4-.33.74-.73.74H22.65c-.4 0-.73-.34-.73-.74v-5.16H16.1c-.4 0-.73-.33-.73-.73V16.39zM139.5 49.63q-1.065 0-1.74.81c-.44.54-.67 1.35-.67 2.42s.22 1.87.67 2.41q.66.81 1.74.81 1.065 0 1.74-.81c.44-.54.67-1.35.67-2.41 0-1.07-.22-1.88-.67-2.42q-.675-.81-1.74-.81M184.41 22.08h10.01v13.23h-10.01zM211.67 49.63q-1.065 0-1.74.81c-.44.54-.67 1.35-.67 2.42s.22 1.87.67 2.41q.66.81 1.74.81 1.065 0 1.74-.81c.44-.54.67-1.35.67-2.41 0-1.07-.22-1.88-.67-2.42q-.675-.81-1.74-.81M155.72 50.46c-.38.55-.57 1.37-.57 2.47 0 1.04.18 1.82.54 2.36s.86.8 1.5.8c.83 0 1.59-.48 2.27-1.44v-3.99c-.64-.68-1.38-1.02-2.21-1.02-.63-.01-1.14.27-1.53.82M85.66 31.4c-.47.39-.7.91-.7 1.55 0 .57.23 1.04.68 1.41.46.38.98.56 1.57.56h7.25V30.8h-7.09c-.66.02-1.24.22-1.71.6M181.71 49.63q-1.065 0-1.74.81c-.44.54-.67 1.35-.67 2.42s.22 1.87.67 2.41q.66.81 1.74.81 1.065 0 1.74-.81c.44-.54.67-1.35.67-2.41 0-1.07-.22-1.88-.67-2.42q-.675-.81-1.74-.81M56.77 19.51h14.28v14.37H56.77z" class="st1125"/><path d="M40.75 7.1H12.76c-3.04 0-5.53 2.48-5.53 5.52v28.17c0 3.03 2.49 5.51 5.53 5.51h27.99c3.03 0 5.52-2.48 5.52-5.51V12.62c0-3.04-2.48-5.52-5.52-5.52m.02 33.97H12.74V12.33h28.03z" class="st1191"/><path d="M22.16 24.35c.01-.01.02-.01.03-.02l-.02.01z" class="st1192"/><path d="M16.1 31.85h5.82V30.3h-4.88V17.29H27.3v6.87h1.67v-7.77c0-.4-.33-.74-.73-.74H16.1c-.4 0-.73.34-.73.74v14.73c-.01.4.32.73.73.73" class="st1192"/><path d="M36.59 25.83v10.24H23.55v-4.22h-1.63v5.16c0 .4.33.74.73.74H37.4c.4 0 .73-.34.73-.74V24.89c0-.4-.33-.73-.73-.73h-8.44v1.68h7.63zM22.65 24.16c-.18 0-.33.07-.46.18zM21.92 24.89l.24-.54c-.14.14-.24.33-.24.54" class="st1192"/><path d="m22.65 24.16-.46.18c-.01.01-.02.01-.03.02l-.24.54v6.96h1.63v-6.01h5.42v-1.68h-6.32z" class="st1192"/><path d="M232.24 22.06c-.34-.66-.82-1.26-1.45-1.95-.79-.85-1.59-1.41-2.4-1.67s-1.93-.39-3.34-.39h-22.6v21.28h5.74V22.02h6.51v17.32h5.58V22.02h4.03c.43 0 .81.08 1.14.23s.65.4.98.74.54.67.65.97.16 1.5.16 2.02v13.36h5.5V24.2c.01-.77-.16-1.48-.5-2.14" class="st1191"/><path d="M98.01 20.18c-.7-.68-1.53-1.19-2.5-1.53s-2.43-.51-4.39-.51H80.45v4.65h10.4c.72 0 1.29.06 1.69.18s.79.4 1.16.84c.27.35.46.66.58.92s.18.56.18.92v1.14h-9.72c-1.63 0-2.99.6-4.08 1.81-1.08 1.21-1.63 2.73-1.63 4.57 0 1.76.6 3.22 1.79 4.37s2.64 1.73 4.33 1.73h15.06v-12.1c0-1.66-.15-3.01-.44-4.07-.29-1.05-.88-2.03-1.76-2.92m-3.55 14.76h-7.25c-.59 0-1.11-.19-1.57-.56-.46-.38-.68-.85-.68-1.41 0-.65.23-1.16.7-1.55s1.04-.59 1.71-.59h7.09zM122.86 32.82q0-2.73-1.71-4.5c-1.71-1.77-2.69-1.77-4.65-1.77h-6.24c-.62 0-1.15-.22-1.59-.67s-.66-.98-.66-1.61c0-.57.17-1.08.5-1.53.34-.45.73-.67 1.19-.67h11.84v-4h-13.29c-1.93 0-3.4.68-4.39 2.04-.86 1.2-1.29 2.77-1.29 4.73 0 1.39.57 2.68 1.73 3.87 1.15 1.2 2.34 1.79 3.57 1.79h5.78c2.36 0 3.53.88 3.53 2.65 0 .76-.28 1.35-.82 1.75-.55.41-1.22.61-2.03.61H103v3.83h13.81c1.75 0 3.19-.64 4.33-1.92 1.14-1.27 1.72-2.81 1.72-4.6M125.27 18.14h5.56v21.12h-5.56zM147.18 26.54h-6.24c-.62 0-1.15-.22-1.59-.67s-.66-.98-.66-1.61c0-.57.17-1.08.5-1.53.34-.45.73-.67 1.19-.67h11.84v-4h-13.29c-1.93 0-3.4.68-4.39 2.04-.86 1.2-1.29 2.77-1.29 4.73 0 1.39.57 2.68 1.73 3.87 1.15 1.2 2.34 1.79 3.57 1.79h5.78c2.36 0 3.53.88 3.53 2.65 0 .76-.28 1.35-.82 1.75-.55.41-1.22.61-2.03.61h-11.32v3.83h13.81c1.75 0 3.19-.64 4.33-1.92s1.71-2.81 1.71-4.61q0-2.73-1.71-4.5c-1.71-1.77-2.69-1.76-4.65-1.76M71.79 13.96H56.03c-2.65 0-4.82 2.16-4.82 4.81v15.88c0 2.64 2.17 4.8 4.82 4.8h15.76c2.65 0 4.82-2.16 4.82-4.8V18.77c0-2.65-2.17-4.81-4.82-4.81m-.74 19.92H56.77V19.51h14.28z" class="st1192"/><path d="M155.88 18.74v15.77c0 2.62 2.15 4.76 4.79 4.76h15.7v-5.56h-14.93v-14.2h14.93v-5.55h-15.7c-2.64 0-4.79 2.15-4.79 4.78M200.04 22.03c0-2.22-1.81-4.03-4.03-4.03h-13.19c-2.22 0-4.03 1.81-4.03 4.03v13.29c0 2.21 1.81 4.02 4.03 4.02h13.19c2.22 0 4.03-1.81 4.03-4.02zm-5.62 13.28h-10.01V22.08h10.01z" class="st1191"/><path d="M125.75 46.56c.87 0 1.59.22 2.17.65.57.43.89 1.02.95 1.75h1.58c-.11-1.11-.61-2.01-1.5-2.69s-1.96-1.02-3.22-1.02q-2.46 0-3.93 1.62c-.98 1.08-1.47 2.54-1.47 4.39 0 1.84.49 3.31 1.47 4.39q1.47 1.62 3.93 1.62c1.32 0 2.4-.34 3.26-1.01.86-.68 1.35-1.63 1.46-2.87h-1.58c-.07.82-.39 1.46-.95 1.9s-1.29.67-2.2.67c-1.17 0-2.09-.41-2.77-1.22s-1.02-1.97-1.02-3.47c0-1.51.34-2.66 1.03-3.47.68-.83 1.61-1.24 2.79-1.24M132.39 45.44h1.5v11.62h-1.5zM139.5 48.46c-1.19 0-2.15.38-2.86 1.15-.72.77-1.07 1.85-1.07 3.25 0 1.39.36 2.48 1.07 3.24.72.77 1.67 1.15 2.86 1.15 1.2 0 2.16-.38 2.87-1.15.72-.77 1.07-1.85 1.07-3.24 0-1.4-.36-2.48-1.07-3.25-.71-.76-1.67-1.15-2.87-1.15m1.74 6.81q-.66.81-1.74.81-1.065 0-1.74-.81c-.44-.54-.67-1.35-.67-2.41 0-1.07.22-1.88.67-2.42q.66-.81 1.74-.81 1.065 0 1.74.81c.44.54.67 1.35.67 2.42-.01 1.07-.23 1.87-.67 2.41M150.44 54.68c-.69.9-1.46 1.35-2.29 1.35q-.84 0-1.2-.45c-.24-.3-.36-.8-.36-1.48v-5.44h-1.5v5.5c0 2.07.95 3.11 2.84 3.11.93 0 1.77-.42 2.51-1.27v1.07h1.49v-8.41h-1.49zM159.47 49.3q-.945-.84-2.31-.84c-1.02 0-1.87.4-2.54 1.2s-1.01 1.89-1.01 3.26c0 1.33.3 2.38.9 3.16q.9 1.17 2.55 1.17 1.395 0 2.4-1.2v1.01h1.49V45.44h-1.49v3.86zm0 5.34c-.68.96-1.44 1.44-2.27 1.44-.64 0-1.14-.27-1.5-.8-.36-.54-.54-1.32-.54-2.36 0-1.09.19-1.92.57-2.47s.89-.83 1.53-.83c.83 0 1.57.34 2.21 1.02zM174.15 50.87c-.61-.22-1.43-.45-2.46-.67-1.03-.23-1.74-.46-2.12-.71-.38-.24-.57-.61-.57-1.09 0-.53.24-.96.71-1.28s1.13-.48 1.99-.48c1.77 0 2.73.7 2.88 2.11h1.5c-.05-1.11-.47-1.97-1.28-2.58-.8-.61-1.86-.91-3.17-.91q-1.875 0-3 .9c-.75.6-1.13 1.37-1.13 2.31 0 .83.29 1.5.87 2s1.53.89 2.86 1.18c1.33.28 2.26.57 2.81.86.54.29.82.76.82 1.39 0 .61-.26 1.09-.79 1.44s-1.22.53-2.08.53c-.91 0-1.68-.21-2.33-.62-.64-.41-1-1.06-1.08-1.92h-1.48c.04 1.15.47 2.09 1.28 2.83.81.73 2.04 1.1 3.67 1.1 1.28 0 2.32-.33 3.11-.99s1.19-1.49 1.19-2.49c0-.79-.22-1.41-.65-1.88-.42-.47-.94-.81-1.55-1.03M181.71 48.46c-1.19 0-2.15.38-2.86 1.15-.72.77-1.07 1.85-1.07 3.25 0 1.39.36 2.48 1.07 3.24.72.77 1.67 1.15 2.86 1.15 1.2 0 2.16-.38 2.87-1.15.72-.77 1.07-1.85 1.07-3.24 0-1.4-.36-2.48-1.07-3.25-.71-.76-1.67-1.15-2.87-1.15m1.73 6.81q-.66.81-1.74.81-1.065 0-1.74-.81c-.44-.54-.67-1.35-.67-2.41 0-1.07.22-1.88.67-2.42q.66-.81 1.74-.81 1.065 0 1.74.81c.44.54.67 1.35.67 2.42s-.22 1.87-.67 2.41M187.33 45.44h1.5v11.62h-1.5zM196.35 54.68c-.69.9-1.46 1.35-2.29 1.35q-.84 0-1.2-.45c-.24-.3-.36-.8-.36-1.48v-5.44H191v5.5c0 2.07.95 3.11 2.84 3.11.93 0 1.77-.42 2.51-1.27v1.07h1.49v-8.41h-1.49zM201.97 55.77c-.15-.16-.22-.52-.22-1.1v-4.85h1.36v-1.17h-1.36v-2.09h-1.49v2.09h-1.04v1.17h1.04v4.77c0 .59.03 1.06.1 1.4s.25.62.53.84c.29.22.73.33 1.35.33.39 0 .74-.03 1.07-.1v-1.13c-.24.04-.49.06-.74.06a.7.7 0 0 1-.6-.22M204.56 48.65h1.5v8.41h-1.5zM204.56 45.44h1.5v1.62h-1.5zM211.67 48.46c-1.19 0-2.15.38-2.86 1.15-.72.77-1.07 1.85-1.07 3.25 0 1.39.36 2.48 1.07 3.24.72.77 1.67 1.15 2.86 1.15 1.2 0 2.16-.38 2.87-1.15.72-.77 1.07-1.85 1.07-3.24 0-1.4-.36-2.48-1.07-3.25-.71-.76-1.67-1.15-2.87-1.15m1.73 6.81q-.66.81-1.74.81-1.065 0-1.74-.81c-.44-.54-.67-1.35-.67-2.41 0-1.07.22-1.88.67-2.42q.66-.81 1.74-.81 1.065 0 1.74.81c.44.54.67 1.35.67 2.42s-.22 1.87-.67 2.41M221.3 48.46c-.93 0-1.77.42-2.51 1.26v-1.07h-1.5v8.41h1.5v-6.02q1.14-1.35 2.28-1.35c.56 0 .96.15 1.21.45s.37.79.37 1.48v5.44h1.5v-5.5c-.01-2.06-.96-3.1-2.85-3.1M231.95 52.9c-.49-.33-1.25-.61-2.27-.86s-1.65-.44-1.91-.59c-.25-.15-.38-.38-.38-.71 0-.36.16-.64.5-.83.33-.19.75-.29 1.25-.29 1.14 0 1.73.4 1.78 1.19h1.49c-.05-1.57-1.17-2.35-3.38-2.35q-1.425 0-2.28.69c-.57.46-.85 1.03-.85 1.73q0 1.155.69 1.62c.46.31 1.18.58 2.17.83s1.64.45 1.96.61.48.42.48.8c0 .39-.16.71-.49.96-.32.26-.8.38-1.41.38-1.38 0-2.08-.51-2.09-1.54h-1.5c.11 1.81 1.31 2.71 3.61 2.71 1.03 0 1.85-.25 2.46-.76.61-.5.92-1.14.92-1.91q-.015-1.185-.75-1.68" class="st1193"/></g></svg>